#N canvas 1071 81 735 769 12;
#X obj 97 117 readsf~;
#X obj 101 200 dac~;
#X msg 200 51 open sound.wav;
#X msg 29 28 0;
#X msg 97 24 1;
#X obj 439 143 readsf~;
#X obj 443 226 dac~;
#X msg 371 54 0;
#X msg 439 50 1;
#X obj 532 75 openpanel;
#X msg 532 99 open \$1;
#X obj 536 31 bng 15 250 50 0 empty empty empty 17 7 0 10 -262144 -1
-1;
#X text 49 243 파일명 직접 쓰는 방법, f 19;
#X text 413 265 파일 고르는 방법, f 14;
#X obj 71 352 soundfiler;
#X floatatom 73 402 10 0 0 0 - - -;
#X obj 76 459 expr 44100/$f1;
#X obj 79 557 phasor~;
#X obj 257 580 *~;
#X obj 241 610 tabread4~ soundData;
#X obj 250 676 dac~;
#X msg 19 440 0;
#N canvas 0 50 450 250 (subpatch) 0;
#X array soundData 100 float 3;
#A 0 0 0 0 0 0 0 0 0 0 0 0 0 0 0 0 0 0 0 0 0 0 0 0 0 0 0 0 0 0 0 0
0 0 0 0 0 0 0 0 0 0 0 0 0 0 0 0 0 0 0 0 0 0 0 0 0 0 0 0 0 0 0 0 0 0
0 0 0 0 0 0 0 0 0 0 0 0 0 0 0 0 0 0 0 0 0 0 0 0 0 0 0 0 0 0 0 0 0 0
0;
#X coords 0 1 100 -1 200 140 1;
#X restore 408 362 graph;
#X obj 232 448 hsl 128 15 0 0.01 0 0 empty empty empty -2 -8 0 10 -262144
-1 -1 0 1;
#X msg 70 307 read -resize sound.wav soundData;
#X floatatom 255 502 5 0 0 0 - - -;
#X connect 0 0 1 0;
#X connect 0 0 1 1;
#X connect 2 0 0 0;
#X connect 3 0 0 0;
#X connect 4 0 0 0;
#X connect 5 0 6 0;
#X connect 5 0 6 1;
#X connect 7 0 5 0;
#X connect 8 0 5 0;
#X connect 9 0 10 0;
#X connect 10 0 5 0;
#X connect 11 0 9 0;
#X connect 14 0 15 0;
#X connect 15 0 16 0;
#X connect 15 0 18 1;
#X connect 16 0 17 0;
#X connect 17 0 18 0;
#X connect 18 0 19 0;
#X connect 19 0 20 0;
#X connect 19 0 20 1;
#X connect 21 0 17 0;
#X connect 23 0 25 0;
#X connect 24 0 14 0;
#X connect 25 0 17 0;
